<mxfile host="app.diagrams.net" modified="2023-12-27T15:03:18.272Z" agent="Mozilla/5.0 (Windows NT 10.0; Win64; x64) AppleWebKit/537.36 (KHTML, like Gecko) Chrome/120.0.0.0 Safari/537.36 Edg/120.0.0.0" etag="U8phE2FYE6OPaTFEoz56" version="22.1.13" type="device">
  <diagram id="R2lEEEUBdFMjLlhIrx00" name="Page-1">
    <mxGraphModel dx="1434" dy="788" grid="1" gridSize="10" guides="1" tooltips="1" connect="1" arrows="1" fold="1" page="1" pageScale="1" pageWidth="850" pageHeight="1100" math="0" shadow="0" extFonts="Permanent Marker^https://fonts.googleapis.com/css?family=Permanent+Marker">
      <root>
        <mxCell id="0" />
        <mxCell id="1" parent="0" />
        <mxCell id="mqHk8VWDTBpLWRk9Ftv8-11" value="vehicle" style="swimlane;fontStyle=0;childLayout=stackLayout;horizontal=1;startSize=30;horizontalStack=0;resizeParent=1;resizeParentMax=0;resizeLast=0;collapsible=1;marginBottom=0;whiteSpace=wrap;html=1;" vertex="1" parent="1">
          <mxGeometry x="410" y="250" width="140" height="130" as="geometry" />
        </mxCell>
        <mxCell id="mqHk8VWDTBpLWRk9Ftv8-12" value="&lt;u&gt;id&lt;/u&gt;" style="text;strokeColor=none;fillColor=none;align=left;verticalAlign=middle;spacingLeft=4;spacingRight=4;overflow=hidden;points=[[0,0.5],[1,0.5]];portConstraint=eastwest;rotatable=0;whiteSpace=wrap;html=1;" vertex="1" parent="mqHk8VWDTBpLWRk9Ftv8-11">
          <mxGeometry y="30" width="140" height="20" as="geometry" />
        </mxCell>
        <mxCell id="mqHk8VWDTBpLWRk9Ftv8-13" value="categ" style="text;strokeColor=none;fillColor=none;align=left;verticalAlign=middle;spacingLeft=4;spacingRight=4;overflow=hidden;points=[[0,0.5],[1,0.5]];portConstraint=eastwest;rotatable=0;whiteSpace=wrap;html=1;" vertex="1" parent="mqHk8VWDTBpLWRk9Ftv8-11">
          <mxGeometry y="50" width="140" height="20" as="geometry" />
        </mxCell>
        <mxCell id="mqHk8VWDTBpLWRk9Ftv8-14" value="nation" style="text;strokeColor=none;fillColor=none;align=left;verticalAlign=middle;spacingLeft=4;spacingRight=4;overflow=hidden;points=[[0,0.5],[1,0.5]];portConstraint=eastwest;rotatable=0;whiteSpace=wrap;html=1;" vertex="1" parent="mqHk8VWDTBpLWRk9Ftv8-11">
          <mxGeometry y="70" width="140" height="20" as="geometry" />
        </mxCell>
        <mxCell id="mqHk8VWDTBpLWRk9Ftv8-25" value="&lt;u&gt;name&lt;/u&gt;" style="text;strokeColor=none;fillColor=none;align=left;verticalAlign=middle;spacingLeft=4;spacingRight=4;overflow=hidden;points=[[0,0.5],[1,0.5]];portConstraint=eastwest;rotatable=0;whiteSpace=wrap;html=1;" vertex="1" parent="mqHk8VWDTBpLWRk9Ftv8-11">
          <mxGeometry y="90" width="140" height="20" as="geometry" />
        </mxCell>
        <mxCell id="mqHk8VWDTBpLWRk9Ftv8-24" value="picture" style="text;strokeColor=none;fillColor=none;align=left;verticalAlign=middle;spacingLeft=4;spacingRight=4;overflow=hidden;points=[[0,0.5],[1,0.5]];portConstraint=eastwest;rotatable=0;whiteSpace=wrap;html=1;" vertex="1" parent="mqHk8VWDTBpLWRk9Ftv8-11">
          <mxGeometry y="110" width="140" height="20" as="geometry" />
        </mxCell>
        <mxCell id="mqHk8VWDTBpLWRk9Ftv8-15" value="photoWall" style="swimlane;fontStyle=0;childLayout=stackLayout;horizontal=1;startSize=30;horizontalStack=0;resizeParent=1;resizeParentMax=0;resizeLast=0;collapsible=1;marginBottom=0;whiteSpace=wrap;html=1;" vertex="1" parent="1">
          <mxGeometry x="660" y="390" width="140" height="90" as="geometry" />
        </mxCell>
        <mxCell id="mqHk8VWDTBpLWRk9Ftv8-16" value="id" style="text;strokeColor=none;fillColor=none;align=left;verticalAlign=middle;spacingLeft=4;spacingRight=4;overflow=hidden;points=[[0,0.5],[1,0.5]];portConstraint=eastwest;rotatable=0;whiteSpace=wrap;html=1;" vertex="1" parent="mqHk8VWDTBpLWRk9Ftv8-15">
          <mxGeometry y="30" width="140" height="20" as="geometry" />
        </mxCell>
        <mxCell id="mqHk8VWDTBpLWRk9Ftv8-44" value="" style="endArrow=none;dashed=1;html=1;rounded=0;" edge="1" parent="mqHk8VWDTBpLWRk9Ftv8-15">
          <mxGeometry width="50" height="50" relative="1" as="geometry">
            <mxPoint y="50" as="sourcePoint" />
            <mxPoint x="20" y="50" as="targetPoint" />
            <Array as="points">
              <mxPoint x="20" y="50" />
            </Array>
          </mxGeometry>
        </mxCell>
        <mxCell id="mqHk8VWDTBpLWRk9Ftv8-17" value="address" style="text;strokeColor=none;fillColor=none;align=left;verticalAlign=middle;spacingLeft=4;spacingRight=4;overflow=hidden;points=[[0,0.5],[1,0.5]];portConstraint=eastwest;rotatable=0;whiteSpace=wrap;html=1;" vertex="1" parent="mqHk8VWDTBpLWRk9Ftv8-15">
          <mxGeometry y="50" width="140" height="20" as="geometry" />
        </mxCell>
        <mxCell id="mqHk8VWDTBpLWRk9Ftv8-18" value="valid" style="text;strokeColor=none;fillColor=none;align=left;verticalAlign=middle;spacingLeft=4;spacingRight=4;overflow=hidden;points=[[0,0.5],[1,0.5]];portConstraint=eastwest;rotatable=0;whiteSpace=wrap;html=1;" vertex="1" parent="mqHk8VWDTBpLWRk9Ftv8-15">
          <mxGeometry y="70" width="140" height="20" as="geometry" />
        </mxCell>
        <mxCell id="mqHk8VWDTBpLWRk9Ftv8-19" value="comment" style="swimlane;fontStyle=0;childLayout=stackLayout;horizontal=1;startSize=30;horizontalStack=0;resizeParent=1;resizeParentMax=0;resizeLast=0;collapsible=1;marginBottom=0;whiteSpace=wrap;html=1;" vertex="1" parent="1">
          <mxGeometry x="650" y="70" width="140" height="110" as="geometry" />
        </mxCell>
        <mxCell id="mqHk8VWDTBpLWRk9Ftv8-20" value="id" style="text;strokeColor=none;fillColor=none;align=left;verticalAlign=middle;spacingLeft=4;spacingRight=4;overflow=hidden;points=[[0,0.5],[1,0.5]];portConstraint=eastwest;rotatable=0;whiteSpace=wrap;html=1;" vertex="1" parent="mqHk8VWDTBpLWRk9Ftv8-19">
          <mxGeometry y="30" width="140" height="20" as="geometry" />
        </mxCell>
        <mxCell id="mqHk8VWDTBpLWRk9Ftv8-45" value="" style="endArrow=none;dashed=1;html=1;rounded=0;" edge="1" parent="mqHk8VWDTBpLWRk9Ftv8-19">
          <mxGeometry width="50" height="50" relative="1" as="geometry">
            <mxPoint y="50" as="sourcePoint" />
            <mxPoint x="40" y="50" as="targetPoint" />
          </mxGeometry>
        </mxCell>
        <mxCell id="mqHk8VWDTBpLWRk9Ftv8-88" value="" style="endArrow=none;html=1;rounded=0;entryX=0.007;entryY=0.264;entryDx=0;entryDy=0;entryPerimeter=0;" edge="1" parent="mqHk8VWDTBpLWRk9Ftv8-19" target="mqHk8VWDTBpLWRk9Ftv8-21">
          <mxGeometry relative="1" as="geometry">
            <mxPoint x="-40" y="54.66" as="sourcePoint" />
            <mxPoint x="120" y="54.66" as="targetPoint" />
          </mxGeometry>
        </mxCell>
        <mxCell id="mqHk8VWDTBpLWRk9Ftv8-21" value="userID" style="text;strokeColor=none;fillColor=none;align=left;verticalAlign=middle;spacingLeft=4;spacingRight=4;overflow=hidden;points=[[0,0.5],[1,0.5]];portConstraint=eastwest;rotatable=0;whiteSpace=wrap;html=1;" vertex="1" parent="mqHk8VWDTBpLWRk9Ftv8-19">
          <mxGeometry y="50" width="140" height="20" as="geometry" />
        </mxCell>
        <mxCell id="mqHk8VWDTBpLWRk9Ftv8-48" value="" style="endArrow=none;dashed=1;html=1;rounded=0;" edge="1" parent="mqHk8VWDTBpLWRk9Ftv8-19">
          <mxGeometry width="50" height="50" relative="1" as="geometry">
            <mxPoint x="10" y="69" as="sourcePoint" />
            <mxPoint x="40" y="69" as="targetPoint" />
          </mxGeometry>
        </mxCell>
        <mxCell id="mqHk8VWDTBpLWRk9Ftv8-22" value="content" style="text;strokeColor=none;fillColor=none;align=left;verticalAlign=middle;spacingLeft=4;spacingRight=4;overflow=hidden;points=[[0,0.5],[1,0.5]];portConstraint=eastwest;rotatable=0;whiteSpace=wrap;html=1;" vertex="1" parent="mqHk8VWDTBpLWRk9Ftv8-19">
          <mxGeometry y="70" width="140" height="20" as="geometry" />
        </mxCell>
        <mxCell id="mqHk8VWDTBpLWRk9Ftv8-23" value="point" style="text;strokeColor=none;fillColor=none;align=left;verticalAlign=middle;spacingLeft=4;spacingRight=4;overflow=hidden;points=[[0,0.5],[1,0.5]];portConstraint=eastwest;rotatable=0;whiteSpace=wrap;html=1;" vertex="1" parent="mqHk8VWDTBpLWRk9Ftv8-19">
          <mxGeometry y="90" width="140" height="20" as="geometry" />
        </mxCell>
        <mxCell id="mqHk8VWDTBpLWRk9Ftv8-26" value="aircraft" style="swimlane;fontStyle=0;childLayout=stackLayout;horizontal=1;startSize=30;horizontalStack=0;resizeParent=1;resizeParentMax=0;resizeLast=0;collapsible=1;marginBottom=0;whiteSpace=wrap;html=1;" vertex="1" parent="1">
          <mxGeometry x="210" y="370" width="130" height="310" as="geometry" />
        </mxCell>
        <mxCell id="mqHk8VWDTBpLWRk9Ftv8-27" value="name" style="text;strokeColor=none;fillColor=none;align=left;verticalAlign=middle;spacingLeft=4;spacingRight=4;overflow=hidden;points=[[0,0.5],[1,0.5]];portConstraint=eastwest;rotatable=0;whiteSpace=wrap;html=1;" vertex="1" parent="mqHk8VWDTBpLWRk9Ftv8-26">
          <mxGeometry y="30" width="130" height="20" as="geometry" />
        </mxCell>
        <mxCell id="mqHk8VWDTBpLWRk9Ftv8-43" value="" style="endArrow=none;dashed=1;html=1;rounded=0;" edge="1" parent="mqHk8VWDTBpLWRk9Ftv8-26">
          <mxGeometry width="50" height="50" relative="1" as="geometry">
            <mxPoint x="10" y="49" as="sourcePoint" />
            <mxPoint x="40" y="49" as="targetPoint" />
          </mxGeometry>
        </mxCell>
        <mxCell id="mqHk8VWDTBpLWRk9Ftv8-28" value="type" style="text;strokeColor=none;fillColor=none;align=left;verticalAlign=middle;spacingLeft=4;spacingRight=4;overflow=hidden;points=[[0,0.5],[1,0.5]];portConstraint=eastwest;rotatable=0;whiteSpace=wrap;html=1;" vertex="1" parent="mqHk8VWDTBpLWRk9Ftv8-26">
          <mxGeometry y="50" width="130" height="20" as="geometry" />
        </mxCell>
        <mxCell id="mqHk8VWDTBpLWRk9Ftv8-31" value="crew" style="text;strokeColor=none;fillColor=none;align=left;verticalAlign=middle;spacingLeft=4;spacingRight=4;overflow=hidden;points=[[0,0.5],[1,0.5]];portConstraint=eastwest;rotatable=0;whiteSpace=wrap;html=1;" vertex="1" parent="mqHk8VWDTBpLWRk9Ftv8-26">
          <mxGeometry y="70" width="130" height="20" as="geometry" />
        </mxCell>
        <mxCell id="mqHk8VWDTBpLWRk9Ftv8-33" value="min_speed" style="text;strokeColor=none;fillColor=none;align=left;verticalAlign=middle;spacingLeft=4;spacingRight=4;overflow=hidden;points=[[0,0.5],[1,0.5]];portConstraint=eastwest;rotatable=0;whiteSpace=wrap;html=1;" vertex="1" parent="mqHk8VWDTBpLWRk9Ftv8-26">
          <mxGeometry y="90" width="130" height="20" as="geometry" />
        </mxCell>
        <mxCell id="mqHk8VWDTBpLWRk9Ftv8-41" value="max_speed" style="text;strokeColor=none;fillColor=none;align=left;verticalAlign=middle;spacingLeft=4;spacingRight=4;overflow=hidden;points=[[0,0.5],[1,0.5]];portConstraint=eastwest;rotatable=0;whiteSpace=wrap;html=1;" vertex="1" parent="mqHk8VWDTBpLWRk9Ftv8-26">
          <mxGeometry y="110" width="130" height="20" as="geometry" />
        </mxCell>
        <mxCell id="mqHk8VWDTBpLWRk9Ftv8-40" value="wing_span" style="text;strokeColor=none;fillColor=none;align=left;verticalAlign=middle;spacingLeft=4;spacingRight=4;overflow=hidden;points=[[0,0.5],[1,0.5]];portConstraint=eastwest;rotatable=0;whiteSpace=wrap;html=1;" vertex="1" parent="mqHk8VWDTBpLWRk9Ftv8-26">
          <mxGeometry y="130" width="130" height="20" as="geometry" />
        </mxCell>
        <mxCell id="mqHk8VWDTBpLWRk9Ftv8-39" value="&lt;div style=&quot;border-color: var(--border-color); text-align: center;&quot;&gt;height&lt;/div&gt;" style="text;strokeColor=none;fillColor=none;align=left;verticalAlign=middle;spacingLeft=4;spacingRight=4;overflow=hidden;points=[[0,0.5],[1,0.5]];portConstraint=eastwest;rotatable=0;whiteSpace=wrap;html=1;" vertex="1" parent="mqHk8VWDTBpLWRk9Ftv8-26">
          <mxGeometry y="150" width="130" height="20" as="geometry" />
        </mxCell>
        <mxCell id="mqHk8VWDTBpLWRk9Ftv8-38" value="length" style="text;strokeColor=none;fillColor=none;align=left;verticalAlign=middle;spacingLeft=4;spacingRight=4;overflow=hidden;points=[[0,0.5],[1,0.5]];portConstraint=eastwest;rotatable=0;whiteSpace=wrap;html=1;" vertex="1" parent="mqHk8VWDTBpLWRk9Ftv8-26">
          <mxGeometry y="170" width="130" height="20" as="geometry" />
        </mxCell>
        <mxCell id="mqHk8VWDTBpLWRk9Ftv8-37" value="max_payload" style="text;strokeColor=none;fillColor=none;align=left;verticalAlign=middle;spacingLeft=4;spacingRight=4;overflow=hidden;points=[[0,0.5],[1,0.5]];portConstraint=eastwest;rotatable=0;whiteSpace=wrap;html=1;" vertex="1" parent="mqHk8VWDTBpLWRk9Ftv8-26">
          <mxGeometry y="190" width="130" height="20" as="geometry" />
        </mxCell>
        <mxCell id="mqHk8VWDTBpLWRk9Ftv8-36" value="empty_weight" style="text;strokeColor=none;fillColor=none;align=left;verticalAlign=middle;spacingLeft=4;spacingRight=4;overflow=hidden;points=[[0,0.5],[1,0.5]];portConstraint=eastwest;rotatable=0;whiteSpace=wrap;html=1;" vertex="1" parent="mqHk8VWDTBpLWRk9Ftv8-26">
          <mxGeometry y="210" width="130" height="20" as="geometry" />
        </mxCell>
        <mxCell id="mqHk8VWDTBpLWRk9Ftv8-35" value="max_weight" style="text;strokeColor=none;fillColor=none;align=left;verticalAlign=middle;spacingLeft=4;spacingRight=4;overflow=hidden;points=[[0,0.5],[1,0.5]];portConstraint=eastwest;rotatable=0;whiteSpace=wrap;html=1;" vertex="1" parent="mqHk8VWDTBpLWRk9Ftv8-26">
          <mxGeometry y="230" width="130" height="20" as="geometry" />
        </mxCell>
        <mxCell id="mqHk8VWDTBpLWRk9Ftv8-34" value="operator" style="text;strokeColor=none;fillColor=none;align=left;verticalAlign=middle;spacingLeft=4;spacingRight=4;overflow=hidden;points=[[0,0.5],[1,0.5]];portConstraint=eastwest;rotatable=0;whiteSpace=wrap;html=1;" vertex="1" parent="mqHk8VWDTBpLWRk9Ftv8-26">
          <mxGeometry y="250" width="130" height="20" as="geometry" />
        </mxCell>
        <mxCell id="mqHk8VWDTBpLWRk9Ftv8-32" value="commissioned" style="text;strokeColor=none;fillColor=none;align=left;verticalAlign=middle;spacingLeft=4;spacingRight=4;overflow=hidden;points=[[0,0.5],[1,0.5]];portConstraint=eastwest;rotatable=0;whiteSpace=wrap;html=1;" vertex="1" parent="mqHk8VWDTBpLWRk9Ftv8-26">
          <mxGeometry y="270" width="130" height="20" as="geometry" />
        </mxCell>
        <mxCell id="mqHk8VWDTBpLWRk9Ftv8-29" value="propulsion" style="text;strokeColor=none;fillColor=none;align=left;verticalAlign=middle;spacingLeft=4;spacingRight=4;overflow=hidden;points=[[0,0.5],[1,0.5]];portConstraint=eastwest;rotatable=0;whiteSpace=wrap;html=1;" vertex="1" parent="mqHk8VWDTBpLWRk9Ftv8-26">
          <mxGeometry y="290" width="130" height="20" as="geometry" />
        </mxCell>
        <mxCell id="mqHk8VWDTBpLWRk9Ftv8-49" value="app_user" style="swimlane;fontStyle=0;childLayout=stackLayout;horizontal=1;startSize=30;horizontalStack=0;resizeParent=1;resizeParentMax=0;resizeLast=0;collapsible=1;marginBottom=0;whiteSpace=wrap;html=1;" vertex="1" parent="1">
          <mxGeometry x="310" y="50" width="140" height="150" as="geometry" />
        </mxCell>
        <mxCell id="mqHk8VWDTBpLWRk9Ftv8-50" value="&lt;u&gt;id&lt;/u&gt;" style="text;strokeColor=none;fillColor=none;align=left;verticalAlign=middle;spacingLeft=4;spacingRight=4;overflow=hidden;points=[[0,0.5],[1,0.5]];portConstraint=eastwest;rotatable=0;whiteSpace=wrap;html=1;" vertex="1" parent="mqHk8VWDTBpLWRk9Ftv8-49">
          <mxGeometry y="30" width="140" height="20" as="geometry" />
        </mxCell>
        <mxCell id="mqHk8VWDTBpLWRk9Ftv8-51" value="user_name" style="text;strokeColor=none;fillColor=none;align=left;verticalAlign=middle;spacingLeft=4;spacingRight=4;overflow=hidden;points=[[0,0.5],[1,0.5]];portConstraint=eastwest;rotatable=0;whiteSpace=wrap;html=1;" vertex="1" parent="mqHk8VWDTBpLWRk9Ftv8-49">
          <mxGeometry y="50" width="140" height="20" as="geometry" />
        </mxCell>
        <mxCell id="mqHk8VWDTBpLWRk9Ftv8-52" value="user_type" style="text;strokeColor=none;fillColor=none;align=left;verticalAlign=middle;spacingLeft=4;spacingRight=4;overflow=hidden;points=[[0,0.5],[1,0.5]];portConstraint=eastwest;rotatable=0;whiteSpace=wrap;html=1;" vertex="1" parent="mqHk8VWDTBpLWRk9Ftv8-49">
          <mxGeometry y="70" width="140" height="20" as="geometry" />
        </mxCell>
        <mxCell id="mqHk8VWDTBpLWRk9Ftv8-54" value="salt" style="text;strokeColor=none;fillColor=none;align=left;verticalAlign=middle;spacingLeft=4;spacingRight=4;overflow=hidden;points=[[0,0.5],[1,0.5]];portConstraint=eastwest;rotatable=0;whiteSpace=wrap;html=1;" vertex="1" parent="mqHk8VWDTBpLWRk9Ftv8-49">
          <mxGeometry y="90" width="140" height="20" as="geometry" />
        </mxCell>
        <mxCell id="mqHk8VWDTBpLWRk9Ftv8-53" value="password" style="text;strokeColor=none;fillColor=none;align=left;verticalAlign=middle;spacingLeft=4;spacingRight=4;overflow=hidden;points=[[0,0.5],[1,0.5]];portConstraint=eastwest;rotatable=0;whiteSpace=wrap;html=1;" vertex="1" parent="mqHk8VWDTBpLWRk9Ftv8-49">
          <mxGeometry y="110" width="140" height="20" as="geometry" />
        </mxCell>
        <mxCell id="mqHk8VWDTBpLWRk9Ftv8-55" value="&lt;u&gt;email_address&lt;/u&gt;" style="text;strokeColor=none;fillColor=none;align=left;verticalAlign=middle;spacingLeft=4;spacingRight=4;overflow=hidden;points=[[0,0.5],[1,0.5]];portConstraint=eastwest;rotatable=0;whiteSpace=wrap;html=1;" vertex="1" parent="mqHk8VWDTBpLWRk9Ftv8-49">
          <mxGeometry y="130" width="140" height="20" as="geometry" />
        </mxCell>
        <mxCell id="mqHk8VWDTBpLWRk9Ftv8-57" value="Nation&lt;span style=&quot;border-color: var(--border-color); font-size: 12px;&quot;&gt;&lt;span style=&quot;white-space: pre;&quot;&gt;&amp;nbsp;&amp;nbsp;&amp;nbsp;&amp;nbsp;&lt;/span&gt;&lt;/span&gt;" style="swimlane;childLayout=stackLayout;horizontal=1;startSize=50;horizontalStack=0;rounded=1;fontSize=14;fontStyle=0;strokeWidth=2;resizeParent=0;resizeLast=1;shadow=0;dashed=0;align=center;arcSize=4;whiteSpace=wrap;html=1;" vertex="1" parent="1">
          <mxGeometry x="60" y="230" width="140" height="120" as="geometry" />
        </mxCell>
        <mxCell id="mqHk8VWDTBpLWRk9Ftv8-58" value="&lt;u style=&quot;border-color: var(--border-color);&quot;&gt;nation_name&lt;/u&gt;" style="align=left;strokeColor=none;fillColor=none;spacingLeft=4;fontSize=12;verticalAlign=top;resizable=0;rotatable=0;part=1;html=1;" vertex="1" parent="mqHk8VWDTBpLWRk9Ftv8-57">
          <mxGeometry y="50" width="140" height="70" as="geometry" />
        </mxCell>
        <mxCell id="mqHk8VWDTBpLWRk9Ftv8-69" value="category" style="swimlane;childLayout=stackLayout;horizontal=1;startSize=50;horizontalStack=0;rounded=1;fontSize=14;fontStyle=0;strokeWidth=2;resizeParent=0;resizeLast=1;shadow=0;dashed=0;align=center;arcSize=4;whiteSpace=wrap;html=1;" vertex="1" parent="1">
          <mxGeometry x="50" y="80" width="160" height="120" as="geometry" />
        </mxCell>
        <mxCell id="mqHk8VWDTBpLWRk9Ftv8-70" value="&lt;span style=&quot;border-color: var(--border-color);&quot;&gt;&lt;u&gt;type&lt;/u&gt;&lt;br&gt;count&lt;br&gt;&lt;/span&gt;" style="align=left;strokeColor=none;fillColor=none;spacingLeft=4;fontSize=12;verticalAlign=top;resizable=0;rotatable=0;part=1;html=1;" vertex="1" parent="mqHk8VWDTBpLWRk9Ftv8-69">
          <mxGeometry y="50" width="160" height="70" as="geometry" />
        </mxCell>
        <mxCell id="mqHk8VWDTBpLWRk9Ftv8-72" value="cate_of_vec" style="shape=rhombus;perimeter=rhombusPerimeter;whiteSpace=wrap;html=1;align=center;" vertex="1" parent="1">
          <mxGeometry x="260" y="220" width="90" height="40" as="geometry" />
        </mxCell>
        <mxCell id="mqHk8VWDTBpLWRk9Ftv8-74" value="" style="edgeStyle=entityRelationEdgeStyle;fontSize=12;html=1;endArrow=ERoneToMany;rounded=0;exitX=1;exitY=0.5;exitDx=0;exitDy=0;entryX=0;entryY=0.5;entryDx=0;entryDy=0;" edge="1" parent="1" source="mqHk8VWDTBpLWRk9Ftv8-72" target="mqHk8VWDTBpLWRk9Ftv8-13">
          <mxGeometry width="100" height="100" relative="1" as="geometry">
            <mxPoint x="300" y="410" as="sourcePoint" />
            <mxPoint x="410" y="270" as="targetPoint" />
          </mxGeometry>
        </mxCell>
        <mxCell id="mqHk8VWDTBpLWRk9Ftv8-78" value="nation_of_vec" style="shape=rhombus;perimeter=rhombusPerimeter;whiteSpace=wrap;html=1;align=center;" vertex="1" parent="1">
          <mxGeometry x="250" y="305" width="100" height="50" as="geometry" />
        </mxCell>
        <mxCell id="mqHk8VWDTBpLWRk9Ftv8-81" value="" style="endArrow=none;html=1;rounded=0;entryX=0;entryY=0.5;entryDx=0;entryDy=0;exitX=1;exitY=0.25;exitDx=0;exitDy=0;" edge="1" parent="1" source="mqHk8VWDTBpLWRk9Ftv8-58" target="mqHk8VWDTBpLWRk9Ftv8-78">
          <mxGeometry relative="1" as="geometry">
            <mxPoint x="110" y="530" as="sourcePoint" />
            <mxPoint x="270" y="530" as="targetPoint" />
            <Array as="points">
              <mxPoint x="230" y="298" />
              <mxPoint x="230" y="330" />
            </Array>
          </mxGeometry>
        </mxCell>
        <mxCell id="mqHk8VWDTBpLWRk9Ftv8-82" value="" style="resizable=0;html=1;whiteSpace=wrap;align=right;verticalAlign=bottom;" connectable="0" vertex="1" parent="mqHk8VWDTBpLWRk9Ftv8-81">
          <mxGeometry x="1" relative="1" as="geometry" />
        </mxCell>
        <mxCell id="mqHk8VWDTBpLWRk9Ftv8-85" value="" style="edgeStyle=entityRelationEdgeStyle;fontSize=12;html=1;endArrow=ERoneToMany;rounded=0;exitX=1;exitY=0.5;exitDx=0;exitDy=0;entryX=0;entryY=0.5;entryDx=0;entryDy=0;" edge="1" parent="1" source="mqHk8VWDTBpLWRk9Ftv8-78" target="mqHk8VWDTBpLWRk9Ftv8-14">
          <mxGeometry width="100" height="100" relative="1" as="geometry">
            <mxPoint x="350" y="390" as="sourcePoint" />
            <mxPoint x="450" y="290" as="targetPoint" />
            <Array as="points">
              <mxPoint x="360" y="290" />
            </Array>
          </mxGeometry>
        </mxCell>
        <mxCell id="mqHk8VWDTBpLWRk9Ftv8-86" value="user_vec_comm" style="shape=rhombus;perimeter=rhombusPerimeter;whiteSpace=wrap;html=1;align=center;" vertex="1" parent="1">
          <mxGeometry x="490" y="95" width="120" height="60" as="geometry" />
        </mxCell>
        <mxCell id="mqHk8VWDTBpLWRk9Ftv8-87" value="" style="endArrow=none;html=1;rounded=0;entryX=0;entryY=0.5;entryDx=0;entryDy=0;" edge="1" parent="1" target="mqHk8VWDTBpLWRk9Ftv8-86">
          <mxGeometry relative="1" as="geometry">
            <mxPoint x="450" y="124.66" as="sourcePoint" />
            <mxPoint x="610" y="124.66" as="targetPoint" />
          </mxGeometry>
        </mxCell>
        <mxCell id="mqHk8VWDTBpLWRk9Ftv8-89" value="" style="endArrow=none;html=1;rounded=0;exitX=0.5;exitY=1;exitDx=0;exitDy=0;entryX=1;entryY=0.5;entryDx=0;entryDy=0;" edge="1" parent="1" source="mqHk8VWDTBpLWRk9Ftv8-86" target="mqHk8VWDTBpLWRk9Ftv8-12">
          <mxGeometry relative="1" as="geometry">
            <mxPoint x="550" y="200" as="sourcePoint" />
            <mxPoint x="710" y="200" as="targetPoint" />
            <Array as="points">
              <mxPoint x="550" y="200" />
              <mxPoint x="610" y="200" />
              <mxPoint x="610" y="290" />
            </Array>
          </mxGeometry>
        </mxCell>
        <mxCell id="mqHk8VWDTBpLWRk9Ftv8-90" value="" style="endArrow=none;html=1;rounded=0;entryX=0;entryY=0.5;entryDx=0;entryDy=0;exitX=1;exitY=1;exitDx=0;exitDy=0;" edge="1" parent="1" source="mqHk8VWDTBpLWRk9Ftv8-70" target="mqHk8VWDTBpLWRk9Ftv8-72">
          <mxGeometry relative="1" as="geometry">
            <mxPoint x="200" y="250" as="sourcePoint" />
            <mxPoint x="240" y="250.34" as="targetPoint" />
            <Array as="points">
              <mxPoint x="240" y="200" />
              <mxPoint x="240" y="240" />
            </Array>
          </mxGeometry>
        </mxCell>
        <mxCell id="mqHk8VWDTBpLWRk9Ftv8-91" value="photos_of_vec" style="shape=rhombus;perimeter=rhombusPerimeter;whiteSpace=wrap;html=1;align=center;" vertex="1" parent="1">
          <mxGeometry x="580" y="310" width="100" height="40" as="geometry" />
        </mxCell>
        <mxCell id="mqHk8VWDTBpLWRk9Ftv8-93" value="" style="endArrow=none;html=1;rounded=0;exitX=1;exitY=0.5;exitDx=0;exitDy=0;entryX=0;entryY=0.5;entryDx=0;entryDy=0;" edge="1" parent="1" source="mqHk8VWDTBpLWRk9Ftv8-14" target="mqHk8VWDTBpLWRk9Ftv8-91">
          <mxGeometry relative="1" as="geometry">
            <mxPoint x="560" y="420" as="sourcePoint" />
            <mxPoint x="610" y="360" as="targetPoint" />
            <Array as="points">
              <mxPoint x="580" y="330" />
            </Array>
          </mxGeometry>
        </mxCell>
        <mxCell id="mqHk8VWDTBpLWRk9Ftv8-95" value="" style="edgeStyle=entityRelationEdgeStyle;fontSize=12;html=1;endArrow=ERoneToMany;rounded=0;exitX=1;exitY=0.5;exitDx=0;exitDy=0;" edge="1" parent="1" source="mqHk8VWDTBpLWRk9Ftv8-91">
          <mxGeometry width="100" height="100" relative="1" as="geometry">
            <mxPoint x="710" y="400" as="sourcePoint" />
            <mxPoint x="660" y="430" as="targetPoint" />
            <Array as="points">
              <mxPoint x="670" y="390" />
            </Array>
          </mxGeometry>
        </mxCell>
        <mxCell id="mqHk8VWDTBpLWRk9Ftv8-96" value="specialization" style="shape=rhombus;perimeter=rhombusPerimeter;whiteSpace=wrap;html=1;align=center;" vertex="1" parent="1">
          <mxGeometry x="410" y="400" width="120" height="60" as="geometry" />
        </mxCell>
        <mxCell id="mqHk8VWDTBpLWRk9Ftv8-97" value="" style="endArrow=none;html=1;rounded=0;entryX=0;entryY=0.5;entryDx=0;entryDy=0;exitX=1;exitY=0.5;exitDx=0;exitDy=0;" edge="1" parent="1" source="mqHk8VWDTBpLWRk9Ftv8-28" target="mqHk8VWDTBpLWRk9Ftv8-96">
          <mxGeometry relative="1" as="geometry">
            <mxPoint x="370" y="519.66" as="sourcePoint" />
            <mxPoint x="530" y="519.66" as="targetPoint" />
          </mxGeometry>
        </mxCell>
        <mxCell id="mqHk8VWDTBpLWRk9Ftv8-98" value="" style="endArrow=none;html=1;rounded=0;entryX=1;entryY=0.5;entryDx=0;entryDy=0;exitX=1;exitY=0.5;exitDx=0;exitDy=0;" edge="1" parent="1" source="mqHk8VWDTBpLWRk9Ftv8-96" target="mqHk8VWDTBpLWRk9Ftv8-24">
          <mxGeometry relative="1" as="geometry">
            <mxPoint x="540" y="519.66" as="sourcePoint" />
            <mxPoint x="700" y="519.66" as="targetPoint" />
            <Array as="points">
              <mxPoint x="560" y="430" />
              <mxPoint x="580" y="430" />
              <mxPoint x="580" y="370" />
            </Array>
          </mxGeometry>
        </mxCell>
      </root>
    </mxGraphModel>
  </diagram>
</mxfile>
